# Blender v2.78 (sub 4) OBJ File: ''
# www.blender.org
mtllib pruebaobj.mtl
o Plane_Plane.001
v -1.000000 0.000000 1.000000
v 1.000000 0.000000 1.000000
v -1.000000 0.000000 -1.000000
v 1.000000 0.000000 -1.000000
v -0.500000 0.000000 1.000000
v 0.000000 0.000000 1.000000
v 0.500000 0.000000 1.000000
v 0.500000 0.000000 -1.000000
v 0.000000 0.000000 -1.000000
v -0.500000 0.000000 -1.000000
v -1.000000 0.000000 -0.500000
v -1.000000 0.000000 0.000000
v -1.000000 0.000000 0.500000
v 1.000000 0.000000 0.500000
v 1.000000 0.000000 0.000000
v 1.000000 0.000000 -0.500000
v -0.500000 0.000000 0.500000
v -0.500000 0.000000 0.000000
v -0.500000 0.000000 -0.500000
v 0.000000 0.000000 0.500000
v 0.000000 0.000000 0.000000
v 0.000000 0.000000 -0.500000
v 0.500000 0.000000 0.500000
v 0.500000 0.000000 0.000000
v 0.500000 0.000000 -0.500000
vt 0.999900 0.749950
vt 0.749950 0.999900
vt 0.749950 0.749950
vt 0.250050 0.749950
vt 0.000100 0.999900
vt 0.000100 0.749950
vt 0.500000 0.749950
vt 0.250050 0.999900
vt 0.500000 0.999900
vt 0.749950 0.000100
vt 0.500000 0.250050
vt 0.500000 0.000100
vt 0.749950 0.250050
vt 0.500000 0.500000
vt 0.749950 0.500000
vt 0.250050 0.250050
vt 0.250050 0.000100
vt 0.250050 0.500000
vt 0.000100 0.250050
vt 0.000100 0.000100
vt 0.000100 0.500000
vt 0.999900 0.000100
vt 0.999900 0.250050
vt 0.999900 0.500000
vt 0.999900 0.999900
vn 0.0000 1.0000 0.0000
usemtl None
s off
f 16/1/1 8/2/1 25/3/1
f 19/4/1 3/5/1 11/6/1
f 22/7/1 10/8/1 19/4/1
f 25/3/1 9/9/1 22/7/1
f 7/10/1 20/11/1 6/12/1
f 23/13/1 21/14/1 20/11/1
f 24/15/1 22/7/1 21/14/1
f 6/12/1 17/16/1 5/17/1
f 20/11/1 18/18/1 17/16/1
f 21/14/1 19/4/1 18/18/1
f 5/17/1 13/19/1 1/20/1
f 17/16/1 12/21/1 13/19/1
f 18/18/1 11/6/1 12/21/1
f 2/22/1 23/13/1 7/10/1
f 14/23/1 24/15/1 23/13/1
f 15/24/1 25/3/1 24/15/1
f 16/1/1 4/25/1 8/2/1
f 19/4/1 10/8/1 3/5/1
f 22/7/1 9/9/1 10/8/1
f 25/3/1 8/2/1 9/9/1
f 7/10/1 23/13/1 20/11/1
f 23/13/1 24/15/1 21/14/1
f 24/15/1 25/3/1 22/7/1
f 6/12/1 20/11/1 17/16/1
f 20/11/1 21/14/1 18/18/1
f 21/14/1 22/7/1 19/4/1
f 5/17/1 17/16/1 13/19/1
f 17/16/1 18/18/1 12/21/1
f 18/18/1 19/4/1 11/6/1
f 2/22/1 14/23/1 23/13/1
f 14/23/1 15/24/1 24/15/1
f 15/24/1 16/1/1 25/3/1
