# Blender v2.78 (sub 4) OBJ File: ''
# www.blender.org
mtllib suelo2.mtl
o Plane
v -1.000000 0.000000 1.000000
v 1.000000 0.000000 1.000000
v -1.000000 0.000000 -1.000000
v 1.000000 0.000000 -1.000000
v 0.020487 0.000000 1.000000
v 0.020487 0.000000 -1.000000
v -1.000000 0.000000 0.000000
v 1.000000 0.000000 0.000000
v 0.020487 0.000000 0.000000
vt 0.500000 0.000000
vt 1.000000 0.489756
vt 0.500000 0.489756
vt 1.000000 1.000000
vt 0.500000 1.000000
vt 0.000000 0.489756
vt 0.000000 1.000000
vt 0.000000 0.000000
vt 1.000000 0.000000
vn 0.0000 1.0000 0.0000
usemtl None
s off
f 8/1/1 6/2/1 9/3/1
f 9/3/1 3/4/1 7/5/1
f 5/6/1 7/5/1 1/7/1
f 2/8/1 9/3/1 5/6/1
f 8/1/1 4/9/1 6/2/1
f 9/3/1 6/2/1 3/4/1
f 5/6/1 9/3/1 7/5/1
f 2/8/1 8/1/1 9/3/1
